<svg width="19" height="23" viewBox="0 0 19 23" fill="none" xmlns="http://www.w3.org/2000/svg">
<path d="M0.0203792 11.3336L0.050948 22.0123L5.50239 22.0429C12.7981 22.0836 13.8884 21.9919 15.5901 21.1767C16.1607 20.9016 16.5479 20.6163 17.1287 20.0355C18.3005 18.8637 18.7489 17.7326 18.7489 15.9495C18.7489 13.9319 17.9948 12.4137 16.4868 11.4457C16.2219 11.2724 15.9977 11.1196 15.9977 11.1196C15.9977 11.1094 16.2422 10.8445 16.5479 10.5184C17.4548 9.56057 17.9235 8.27668 17.9337 6.74824C17.9439 3.91553 16.1913 1.77571 13.1955 0.95035C12.4008 0.736366 12.197 0.726177 6.18509 0.685419L0 0.65485L0.0203792 11.3336ZM11.0965 6.01459C11.6263 6.33047 11.8403 6.6871 11.8505 7.24753C11.8607 7.88948 11.6162 8.33782 11.1372 8.57218C10.801 8.74541 10.4545 8.76578 8.38605 8.79635L6.01187 8.83711V7.28829V5.73947L8.38605 5.78023C10.5259 5.8108 10.7806 5.83117 11.0965 6.01459ZM11.718 13.8198C12.2989 14.0848 12.4721 14.3497 12.5128 15.063C12.5332 15.5724 12.5026 15.766 12.3294 16.031C11.9422 16.6525 11.6671 16.7035 8.69174 16.7443L6.01187 16.7748V15.1852V13.5855L8.69174 13.6262C10.8519 13.6568 11.4327 13.6976 11.718 13.8198Z" fill="#0000BE"/>
</svg>
