<svg width="21" height="23" viewBox="0 0 21 23" fill="none" xmlns="http://www.w3.org/2000/svg">
<path d="M3.44423 7.35977C3.40347 13.6468 3.39328 14.0951 3.20986 14.6046C2.96531 15.2975 2.44564 15.8987 1.97692 16.0515C1.77313 16.1228 1.33497 16.1534 1.0089 16.133L0.407715 16.0923V19.0676V22.0328L1.25345 22.0838C2.40488 22.1551 4.00466 22.0023 4.85039 21.7475C6.99022 21.0954 8.51866 19.5364 9.2727 17.2437C9.74142 15.807 9.79237 15.1956 9.8535 10.8752L9.90445 6.77896H12.1869H14.4694V14.4212V22.0634L17.6588 22.043L20.8379 22.0124L20.8685 11.3337L20.8889 0.665195H12.1869H3.47479L3.44423 7.35977Z" fill="#0000BE"/>
</svg>
