<svg width="244" height="158" viewBox="0 0 244 158" fill="none" xmlns="http://www.w3.org/2000/svg">
<path opacity="0.3" d="M222.073 2.94647C225.491 2.74541 228.288 0.0257568 231.565 0.0257568C234.117 0.0257568 232.015 2.39693 234.08 2.98704C235.738 3.46061 235.894 2.94647 237.772 2.94647C240.457 2.94647 245.152 5.48763 242.072 8.9096C240.489 10.6685 240.836 12.454 240.165 14.4671C239.79 15.5926 238.516 16.2803 237.812 17.185C235.129 20.6356 234.375 25.254 231.93 28.8272C227.69 35.0244 219.666 38.7007 212.865 41.362C207.791 43.3474 202.943 46.5782 199.113 50.4081C197.432 52.0892 196.742 52.533 194.326 52.2741C191.414 51.9621 191.022 54.1693 188.647 55.1948C183.502 57.4167 179.868 59.7392 176.072 63.9569C174.593 65.6001 173.403 67.1405 171.691 68.6625C166.975 72.8544 150.808 77.9733 157.249 86.0246C158.629 87.7496 160.351 92.6042 159.967 94.9084C159.471 97.8832 154.513 102.715 152.382 104.847C150.837 106.392 150.759 107.254 148.69 108.173C147.117 108.872 145.556 111.673 144.35 112.879C143.423 113.805 142.489 114.514 141.388 115.394C139.787 116.675 140.07 116.24 137.778 116.895C134.891 117.72 135.818 124.715 134.452 124.886C132.287 125.157 131.101 129.757 129.178 131.296C127.9 132.318 126.287 132.874 124.959 134.054C123.908 134.988 120.283 137.246 118.956 137.299C114.124 137.493 110.104 142.948 105.082 143.141C103.662 143.195 100.884 144.342 100.133 145.656C99.5384 146.697 96.484 145.817 95.387 146.427C92.0369 148.288 87.4401 147.522 83.7041 147.522C76.8335 147.522 70.2276 146.061 63.2997 146.061C60.5197 146.061 55.9784 146.214 53.4017 147.36C52.5957 147.718 51.7038 147.329 50.8867 147.562C50.0883 147.79 50.8127 148.849 49.7509 148.982C48.8248 149.098 48.3045 151.338 47.7226 152.065C46.6544 153.4 46.9389 154.824 44.6396 154.824C42.2219 154.824 42.6265 152.349 40.6642 154.093C38.2453 156.244 34.6335 158.691 32.2266 156.284C30.2375 154.295 24.3461 153.906 21.7201 153.323C17.9485 152.485 14.0807 151.903 9.95612 151.903C7.69529 151.903 2.61052 149.193 5.53448 147.522C6.55808 146.937 8.27437 145.747 8.09011 144.642C7.79155 142.85 4.66682 144.652 3.7496 143.506C1.60106 140.82 1.05486 139.907 0.828888 135.839C0.701495 133.546 -0.0978068 132.644 0.666627 130.16C1.30891 128.072 2.90354 128.653 4.47978 127.077C5.65691 125.9 7.60418 126.33 8.69859 125.454C10.3818 124.108 11.1257 122.756 12.3495 121.073C14.1384 118.613 15.4798 115.671 17.7853 113.366C21.0916 110.059 28.1629 108.385 32.5917 107.037C36.6714 105.796 40.1464 103.209 44.2745 102.291C46.1362 101.878 47.4477 100.45 49.3858 100.02L49.4297 100.01C50.9387 99.6746 52.5552 99.3154 53.8074 98.5999C55.2991 97.7475 56.992 95.7603 58.8375 95.7603C59.8346 95.7603 58.1437 96.3881 57.7828 96.4093C56.8003 96.4671 57.0526 97.5086 57.0526 98.2348C57.0526 101.486 56.8881 99.33 59.4054 99.33C62.0551 99.33 61.9631 98.0025 64.3544 97.8697C64.8482 97.8422 66.4625 94.8783 66.545 94.2188C66.8285 91.9502 68.4626 95.1687 68.8978 95.5169C70.7367 96.9881 77.4976 93.1672 77.4976 91.2981C77.4976 88.2265 69.6481 89.6754 68.0053 88.9453C67.2821 88.6238 63.1905 88.2862 63.9893 87.6472C64.2651 87.4266 65.6274 84.1043 65.7742 83.5906C66.5667 80.8168 72.4272 78.0881 75.3071 77.0596C77.3293 76.3374 79.3304 75.3532 80.4184 73.4493C80.7691 72.8355 82.6788 70.3148 83.0145 70.1229C86.5412 68.1077 90.4752 67.2942 93.9267 65.3767C95.7576 64.3595 98.217 64.5652 100.133 63.7136C102.149 62.8176 103.512 58.2433 105.812 58.1155C108.352 57.9744 112.136 56.0594 114.574 55.0325C116.117 54.3833 117.63 52.2741 118.956 52.2741C120.434 52.2741 122.592 55.1832 123.661 54.2212C125 53.0165 126.334 52.7144 126.42 50.5703C126.462 49.5162 125.418 46.9059 124.229 46.7572C123.436 46.6581 120.975 43.9839 120.659 43.4308C119.135 40.7628 122.959 40.8051 123.499 39.4554C124.123 37.8943 127.267 38.6732 128.245 39.4554C129.4 40.379 128.796 42.4809 129.746 43.4308C133.421 47.1054 134.836 46.7006 139.656 45.3224L139.887 45.2563C142.675 44.4599 144.657 41.7029 147.27 40.9563C149.901 40.2046 154.166 37.3459 156.357 35.3988C158.469 33.5218 162.9 32.929 164.551 30.2876C165.502 28.7656 171.357 26.5232 173.151 26.3122C174.651 26.1357 176.205 24.0099 177.532 23.2292C180.446 21.5152 180.078 21.1411 182.643 22.499C184.071 23.2549 190.92 24.5457 192.136 23.0264C192.807 22.1876 196.132 22.7301 196.476 21.5255C196.666 20.8612 197.009 17.7745 197.653 17.5906C204.076 15.7553 210.538 12.6391 212.54 21.6472C212.671 22.2378 213.58 25.8902 214.203 24.8518C215.245 23.1156 216.232 23.6124 216.232 21.2009C216.232 19.1583 215.148 12.6978 216.394 11.1407C217.432 9.84353 216.172 6.95827 217.692 6.02945C218.52 5.52313 221.32 2.99078 222.073 2.94647Z" fill="#EB008C"/>
</svg>
