<svg width="28" height="28" viewBox="0 0 28 28" fill="none" xmlns="http://www.w3.org/2000/svg">
<path d="M9 13.001H19C19.292 13.001 19.5317 13.0946 19.719 13.282C19.9063 13.4693 20 13.709 20 14.001C20 14.293 19.9063 14.5326 19.719 14.72C19.5317 14.9073 19.292 15.001 19 15.001H9C8.708 15.001 8.46833 14.9073 8.281 14.72C8.09367 14.5326 8 14.293 8 14.001C8 13.709 8.09367 13.4693 8.281 13.282C8.46833 13.0946 8.708 13.001 9 13.001ZM13 19.001V9.00098C13 8.70898 13.0937 8.46931 13.281 8.28198C13.4683 8.09464 13.708 8.00098 14 8.00098C14.292 8.00098 14.5317 8.09464 14.719 8.28198C14.9063 8.46931 15 8.70898 15 9.00098V19.001C15 19.293 14.9063 19.5326 14.719 19.72C14.5317 19.9073 14.292 20.001 14 20.001C13.708 20.001 13.4683 19.9073 13.281 19.72C13.0937 19.5326 13 19.293 13 19.001ZM14 26.001C17.396 25.9176 20.224 24.7456 22.484 22.485C24.744 20.2243 25.916 17.3963 26 14.001C25.9167 10.605 24.7447 7.77698 22.484 5.51698C20.2233 3.25698 17.3953 2.08498 14 2.00098C10.604 2.08431 7.776 3.25631 5.516 5.51698C3.256 7.77764 2.084 10.6056 2 14.001C2.08333 17.397 3.25533 20.225 5.516 22.485C7.77667 24.745 10.6047 25.917 14 26.001ZM14 28.001C10.0413 27.897 6.74433 26.5273 4.109 23.892C1.47367 21.2566 0.104 17.9596 0 14.001C0.104 10.0423 1.47367 6.74531 4.109 4.10998C6.74433 1.47464 10.0413 0.104977 14 0.000976562C17.9587 0.104977 21.2557 1.47464 23.891 4.10998C26.5263 6.74531 27.896 10.0423 28 14.001C27.896 17.9596 26.5263 21.2566 23.891 23.892C21.2557 26.5273 17.9587 27.897 14 28.001Z" fill="#EB008C"/>
</svg>
