<svg width="25" height="26" viewBox="0 0 25 26" fill="none" xmlns="http://www.w3.org/2000/svg">
<path d="M11.4389 0.720442C8.49409 0.985373 5.85498 2.20813 3.78648 4.26643C1.98292 6.0598 0.984334 7.85317 0.362767 10.3802C0.128405 11.3176 0.0876465 11.6845 0.0876465 13.0906C0.0876465 15.3222 0.423904 16.8098 1.37154 18.7153C2.84904 21.6703 5.60024 24.0547 8.6877 25.0227C12.9368 26.3575 17.3489 25.4404 20.8235 22.4956C21.547 21.8741 22.3928 20.8755 23.0551 19.8565C25.3885 16.2494 25.6432 11.5011 23.7072 7.60862C23.0347 6.26359 22.515 5.56051 21.333 4.36832C20.2122 3.24747 19.1626 2.48325 17.9093 1.88206C15.9733 0.954803 13.5889 0.526838 11.4389 0.720442Z" fill="#0000BE"/>
</svg>
