<svg width="25" height="37" viewBox="0 0 25 37" fill="none" xmlns="http://www.w3.org/2000/svg">
<path d="M11.4897 0.544411C8.56523 0.809341 5.83442 2.09324 3.73536 4.18211C1.95218 5.97548 0.963785 7.76886 0.301461 10.4589C0.0874791 11.3148 0.0874792 11.5288 0.0569103 24.0926C0.0365311 31.1235 -0.014423 36.8704 0.0263354 36.85C0.495057 36.6463 13.7619 27.5163 17.3996 24.8772C21.4449 21.9528 22.5352 20.8625 23.707 18.5291C24.6139 16.7153 24.9399 15.1971 24.9297 12.8025C24.9196 11.2333 24.889 10.8971 24.6648 10.0411C23.8089 6.85179 22.0868 4.3859 19.4885 2.66386C17.1041 1.07427 14.1899 0.299862 11.4897 0.544411Z" fill="#EB008C"/>
</svg>
