<svg width="24" height="23" viewBox="0 0 24 23" fill="none" xmlns="http://www.w3.org/2000/svg">
<path d="M9.66614 0.155838C7.53651 0.451338 5.72275 1.3684 4.12298 2.92741C2.46207 4.54756 1.41253 6.4734 0.913242 8.83739C0.68907 9.89711 0.658501 12.4955 0.862294 13.6061C1.46348 16.9279 3.39951 19.7607 6.19148 21.3706C7.66897 22.2266 9.03438 22.573 10.9806 22.573C13.4057 22.573 15.2603 21.9209 16.697 20.5555L17.2778 19.995V21.0242V22.0635H20.4366H23.5954V11.3644V0.665319H20.4366H17.2778V1.63333C17.2778 2.16319 17.2574 2.60135 17.237 2.60135C17.2167 2.60135 17.0027 2.41793 16.7581 2.18357C15.7697 1.26651 14.6794 0.695889 13.2937 0.359631C12.3154 0.125269 10.5628 0.0335636 9.66614 0.155838ZM14.1394 6.46321C15.4742 6.98288 16.534 8.11393 16.9823 9.5201C17.1453 10.0296 17.2065 10.4575 17.2065 11.3135C17.2167 13.0865 16.8091 14.1666 15.7494 15.1753C14.6896 16.1841 13.4261 16.6223 11.8263 16.5306C10.196 16.4388 8.9223 15.7867 8.05618 14.6047C7.48556 13.8405 7.19006 12.9642 7.11873 11.8128C6.94551 9.04119 8.25997 6.99307 10.6647 6.32056C11.4901 6.09639 13.3752 6.16771 14.1394 6.46321Z" fill="#0000BE"/>
</svg>
