<svg width="28" height="28" viewBox="0 0 28 28" fill="none" xmlns="http://www.w3.org/2000/svg">
<path d="M14 0.000976562C14.292 0.000976562 14.5317 0.0946431 14.719 0.281976C14.9063 0.46931 15 0.708977 15 1.00098V7.00098C15 7.29298 14.9063 7.53264 14.719 7.71998C14.5317 7.90731 14.292 8.00098 14 8.00098C13.708 8.00098 13.4683 7.90731 13.281 7.71998C13.0937 7.53264 13 7.29298 13 7.00098V1.00098C13 0.708977 13.0937 0.46931 13.281 0.281976C13.4683 0.0946431 13.708 0.000976563 14 0.000976562ZM14 20.001C14.292 20.001 14.5317 20.0946 14.719 20.282C14.9063 20.4693 15 20.709 15 21.001V27.001C15 27.293 14.9063 27.5326 14.719 27.72C14.5317 27.9073 14.292 28.001 14 28.001C13.708 28.001 13.4683 27.9073 13.281 27.72C13.0937 27.5326 13 27.293 13 27.001V21.001C13 20.709 13.0937 20.4693 13.281 20.282C13.4683 20.0946 13.708 20.001 14 20.001ZM28 14.001C28 14.293 27.9063 14.5326 27.719 14.72C27.5317 14.9073 27.292 15.001 27 15.001H21C20.708 15.001 20.4683 14.9073 20.281 14.72C20.0937 14.5326 20 14.293 20 14.001C20 13.709 20.0937 13.4693 20.281 13.282C20.4683 13.0946 20.708 13.001 21 13.001H27C27.292 13.001 27.5317 13.0946 27.719 13.282C27.9063 13.4693 28 13.709 28 14.001ZM8 14.001C8 14.293 7.90633 14.5326 7.719 14.72C7.53167 14.9073 7.292 15.001 7 15.001H1C0.708 15.001 0.468333 14.9073 0.281 14.72C0.0936666 14.5326 0 14.293 0 14.001C0 13.709 0.0936666 13.4693 0.281 13.282C0.468333 13.0946 0.708 13.001 1 13.001H7C7.292 13.001 7.53167 13.0946 7.719 13.282C7.90633 13.4693 8 13.709 8 14.001ZM4.094 4.09498C4.30267 3.90764 4.54233 3.81398 4.813 3.81398C5.08367 3.81398 5.313 3.90764 5.501 4.09498L9.751 8.34498C9.93833 8.55364 10.032 8.78798 10.032 9.04798C10.032 9.30798 9.933 9.53731 9.735 9.73598C9.537 9.93464 9.30767 10.0336 9.047 10.033C8.78633 10.0323 8.552 9.93864 8.344 9.75198L4.094 5.50198C3.90667 5.31464 3.813 5.08531 3.813 4.81398C3.813 4.54264 3.90667 4.30298 4.094 4.09498ZM18.25 18.251C18.4587 18.0423 18.693 17.938 18.953 17.938C19.213 17.938 19.4473 18.0423 19.656 18.251L23.906 22.501C24.0933 22.6883 24.187 22.9176 24.187 23.189C24.187 23.4603 24.088 23.6946 23.89 23.892C23.692 24.0893 23.4577 24.1883 23.187 24.189C22.9163 24.1896 22.687 24.096 22.499 23.908L18.249 19.658C18.0403 19.4493 17.936 19.215 17.936 18.955C17.936 18.695 18.0403 18.4606 18.249 18.252L18.25 18.251ZM23.906 4.09498C24.0933 4.30364 24.187 4.54331 24.187 4.81398C24.187 5.08464 24.0933 5.31398 23.906 5.50198L19.656 9.75198C19.4473 9.93931 19.213 10.033 18.953 10.033C18.693 10.033 18.4637 9.93398 18.265 9.73598C18.0663 9.53798 17.9673 9.30864 17.968 9.04798C17.9687 8.78731 18.0623 8.55298 18.249 8.34498L22.499 4.09498C22.6863 3.90764 22.9157 3.81398 23.187 3.81398C23.4583 3.81398 23.698 3.90764 23.906 4.09498ZM9.75 18.251C9.95867 18.4596 10.063 18.694 10.063 18.954C10.063 19.214 9.95867 19.4483 9.75 19.657L5.5 23.907C5.31267 24.0943 5.08333 24.188 4.812 24.188C4.54067 24.188 4.30633 24.089 4.109 23.891C3.91167 23.693 3.81267 23.4586 3.812 23.188C3.81133 22.9173 3.905 22.688 4.093 22.5L8.343 18.25C8.55167 18.0413 8.786 17.937 9.046 17.937C9.306 17.937 9.54033 18.0413 9.749 18.25L9.75 18.251Z" fill="white"/>
</svg>
