<svg width="26" height="27" viewBox="0 0 26 27" fill="none" xmlns="http://www.w3.org/2000/svg">
<path d="M6.99997 7.001V6.313C7.04197 4.521 7.62531 3.03133 8.74997 1.844C9.87464 0.656667 11.2913 0.042 13 0C14.7086 0.042 16.1253 0.656667 17.25 1.844C18.3746 3.03133 18.958 4.521 19 6.313V7.001H23.094C23.3646 7.001 23.5886 7.08433 23.766 7.251C23.9433 7.41767 24.0526 7.63633 24.094 7.907L25.875 25.907C25.917 26.199 25.839 26.4543 25.641 26.673C25.443 26.8917 25.1983 27.001 24.907 27.001H1.09397C0.801972 27.001 0.557305 26.8917 0.359972 26.673C0.162638 26.4543 0.0846385 26.199 0.125972 25.907L1.90697 7.907C1.94897 7.63633 2.05831 7.41767 2.23497 7.251C2.41164 7.08433 2.63564 7.001 2.90697 7.001H7.00097H6.99997ZM8.99997 7.001H17V6.313C16.9793 5.08367 16.5886 4.06267 15.828 3.25C15.0673 2.43733 14.1246 2.02067 13 2C11.8746 2.02067 10.932 2.43733 10.172 3.25C9.41197 4.06267 9.02131 5.08367 8.99997 6.313V7.001ZM6.99997 9.001H3.81197L2.21797 25.001H23.781L22.187 9.001H18.999V12.001C18.999 12.293 18.9053 12.5327 18.718 12.72C18.5306 12.9073 18.291 13.001 17.999 13.001C17.707 13.001 17.4673 12.9073 17.28 12.72C17.0926 12.5327 16.999 12.293 16.999 12.001V9.001H8.99897V12.001C8.99897 12.293 8.90531 12.5327 8.71797 12.72C8.53064 12.9073 8.29097 13.001 7.99897 13.001C7.70697 13.001 7.4673 12.9073 7.27997 12.72C7.09264 12.5327 6.99897 12.293 6.99897 12.001V9.001H6.99997Z" fill="#EB008C"/>
</svg>
