<svg width="383" height="255" viewBox="0 0 383 255" fill="none" xmlns="http://www.w3.org/2000/svg">
<path opacity="0.3" d="M4.4355 7.94795C5.64495 7.27603 10.3433 2.91444 11.8464 5.74351C24.6199 -0.372466 39.8459 -0.275003 54.4274 0.992955C57.6049 1.26926 60.2179 2.65156 63.4362 2.72003C73.5139 2.93445 84.0855 4.98789 94.0569 6.45426C112.271 9.13285 130.19 12.8829 148.39 15.5097C159.792 17.1555 171.002 19.9631 182.371 21.8579C191.953 23.4548 201.569 24.2263 211.125 26.0589C227.089 29.1205 243.363 32.7065 258.643 38.3819C271.383 43.1138 285.042 47.8631 296.965 54.3923C301.773 57.0251 307.14 57.9889 311.949 60.6938C315.38 62.6238 319.006 64.1408 322.405 66.1085C327.001 68.7696 332.148 70.3869 336.361 73.8103C339.429 76.3031 343.778 78.002 345.603 81.6522C346.592 83.6289 349.512 86.1134 351.018 87.9537C352.117 89.297 352.132 90.1938 352.698 91.7813C353.406 93.7615 355.109 94.9211 356.059 96.8225C357.347 99.3976 359.623 100.933 361.427 103.124C363.277 105.371 364.323 107.731 366.562 109.846C368.242 111.432 369.529 114.036 372.023 114.42C374.108 114.741 374.61 115.265 376.224 116.52C378.68 118.43 382.526 121.612 382.526 125.389C382.526 130.336 380.005 134.009 380.005 138.832C380.005 144.269 380.148 147.988 377.484 152.649C375.629 155.897 366.348 151.647 364.508 150.595C360.602 148.363 360.864 143.874 355.826 143.874C351.067 143.874 348.077 144.714 343.876 146.581C340.348 148.149 335.191 148.915 331.273 148.915C327.15 148.915 321.582 148.741 317.83 150.409C315.47 151.458 312.465 150.844 309.895 151.902C307.683 152.813 305.615 153.956 303.127 153.956C300.703 153.956 299.98 155.875 298.039 156.43C295.691 157.101 292.333 156.768 290.524 158.577C288.772 160.329 284.783 159.752 283.569 161.518C282.371 163.26 279.458 164.084 278.154 165.532C275.21 168.803 268.539 170.231 264.898 172.254C256.713 176.801 250.522 184.873 245.993 193.025C243.862 196.861 242.866 202.638 242.165 206.842C241.845 208.765 239.956 211.55 238.431 212.77C237.513 213.504 234.72 215.931 234.184 216.084C229.298 217.48 227.257 220.631 224.195 223.693C221.154 226.733 215.548 226.751 212.618 229.387C209.894 231.839 204.493 232.128 202.536 235.455C201.431 237.334 198.79 238.35 198.522 240.497C198.261 242.581 196.656 242.998 195.348 244.044C188.246 249.726 177.65 251.419 168.695 251.419C162.762 251.419 157.882 251.53 152.311 253.52C148.265 254.965 140.362 253.836 136.767 251.839C134.155 250.388 130.386 251.069 127.945 248.899C126.177 247.327 122.807 248.752 121.41 246.378C119.305 242.799 114.198 241.967 113.662 237.136C113.311 233.98 106.961 232.961 105.26 230.834C102.05 226.822 99.8295 225.373 94.3369 225.373C88.8151 225.373 83.7346 224.018 78.3731 223.693C77.26 223.625 72.9626 221.167 71.8382 220.145C70.7336 219.141 69.6302 218.668 68.2907 217.998C66.6869 217.196 67.253 216.367 66.2369 215.291C64.137 213.067 62.5846 211.06 62.4093 207.729C62.2328 204.374 64.8617 206.271 66.4236 205.022C69.2578 202.754 74.1976 202.862 77.5329 201.194C80.762 199.579 82.9116 196.227 86.3083 194.286C87.643 193.523 89.5052 190.243 90.1359 188.824C90.8281 187.267 93.9154 186.201 95.1771 184.623C96.8445 182.539 96.8575 181.484 96.8575 178.322C96.8575 176.11 97.6977 174.366 97.6977 172.44V157.317C97.6977 155.664 96.8378 142.619 98.1645 142.24C100.119 141.681 102.961 143.307 103.626 140.98C103.859 140.165 104.961 140.508 105.306 139.299C105.415 138.92 106.234 137.381 106.52 137.152C106.969 136.792 108.38 131.722 108.574 130.851C109.088 128.537 108.62 125.671 108.62 123.289V109.799C108.62 104.929 107.208 100.809 106.94 95.9823C106.815 93.7279 99.9885 87.0995 106.1 86.7401C107.755 86.6427 109.788 85.3848 110.254 83.7527C111.253 80.2575 108.703 81.2174 106.473 80.812C104.51 80.4551 101.475 78.6489 100.218 77.0778C99.6744 76.3978 96.2788 73.4316 95.6439 73.2502C95.1141 73.0988 93.5231 68.8244 92.8432 68.0689C91.383 66.4464 90.0648 64.6084 88.6422 63.0277C87.6077 61.8782 86.7134 59.2169 85.0947 58.36C84.2077 57.8904 82.6558 58.6481 81.9206 57.9865C80.8305 57.0054 80.9044 56.4928 79.2133 56.4928C77.5014 56.4928 74.1082 57.1934 73.1452 55.6526C72.7301 54.9884 68.9129 53.132 68.2907 53.132C63.663 53.132 61.2824 53.0453 58.0216 56.3061C54.607 59.7207 49.658 62.668 44.345 61.4874C43.7182 61.3481 42.474 60.0267 42.2912 59.3869C41.7843 57.6127 40.5437 58.9778 39.8173 57.7065C39.0313 56.3311 36.7628 55.3146 35.1028 54.3923C33.2528 53.3646 30.9475 53.5042 29.6415 51.8717C28.5226 50.4731 26.6001 48.7929 25.0204 48.0908C22.3385 46.8989 13.6777 41.0394 13.6777 38.4285C13.6777 35.5782 17.4489 29.2792 15.1714 26.4324C13.7908 24.7066 12.2454 26.2456 10.3169 26.2456C7.89879 26.2456 6.23301 24.671 4.4355 24.5652C0.430235 24.3296 0.249486 16.2779 1.26141 12.9891C2.03432 10.4772 2.01773 9.29115 4.4355 7.94795Z" fill="#EB008C"/>
</svg>
