<svg width="652" height="337" viewBox="0 0 652 337" fill="none" xmlns="http://www.w3.org/2000/svg">
<g opacity="0.3">
<path d="M138.666 87.3282C140.518 85.6822 141.611 83.2654 143.474 81.4893C142.173 79.3073 139.763 77.7566 139.677 74.8235C110.878 95.3877 81.3557 33.568 108.003 7.50007C124.942 -15 166.248 21.3632 160.53 31.0946C164.992 27.4912 169.074 25.8575 174.345 23.9812C182.939 20.9224 189.806 17.2421 198.98 17.2421C204.359 17.2421 210.426 18.0682 215.528 16.2313C222.949 13.5598 232.804 15.2204 240.687 15.2204C243.848 15.2204 247.408 14.8505 250.272 13.4982C254.377 11.5599 258.579 11.8509 263.001 11.8509C269.295 11.8509 276.176 11.0831 282.395 12.0006C285.95 12.5252 288.493 13.6441 292.129 12.6745C295.031 11.9007 298.72 10.9397 301.713 10.5405C306.533 9.89785 318.501 9.04017 321.781 13.0489C325.013 17.0001 323.653 24.2596 323.653 29.7094C323.653 37.0264 323.659 42.9243 326.198 49.5895C326.947 51.5551 326.905 54.221 327.022 56.3286C327.13 58.2757 328.295 60.2263 328.37 62.244C328.485 65.3379 329.238 68.7345 329.68 71.8284C329.914 73.4643 331.404 74.6082 331.702 76.2462C332.181 78.8781 333.555 80.0967 334.36 82.3113C335.53 85.5288 336.306 89.1227 337.954 92.4199C340.943 98.3975 343.136 105.038 345.555 111.327C348.237 118.301 351.348 125.38 354.128 132.33C355.387 135.478 357.864 138.26 359.519 141.241C361.27 144.391 363.462 148.152 365.772 150.975C368.132 153.859 370.658 158.384 372.174 161.795C372.788 163.176 374.393 164.374 375.206 165.838C375.844 166.986 377.289 169.682 378.239 170.368C379.595 171.347 381.011 173.436 381.983 174.786C383.193 176.467 385.073 178.355 385.802 180.177C387.316 183.963 393.274 185.254 400.5 189.5C407.726 193.746 604.925 175.724 612.308 182.001C615.406 184.633 619.864 185.363 622.717 188.066C625.361 190.571 629.445 192.7 632.563 194.505C634.274 195.496 636.318 196.395 636.756 198.511C637.188 200.597 637.26 201.91 639.527 202.817C641.488 203.601 643.614 204.87 645.33 205.962C647.237 207.175 650.749 210.558 651.021 213C651.244 215.014 614.54 240.413 614.54 240.413C614.54 240.413 615.738 246.269 615.738 249.249C638.302 274.878 595.2 316.714 573.5 300.282C563.454 326.336 442.438 298.977 448.475 280.29C447.447 281.318 446.863 281.794 446.004 282.761C444.832 284.078 444.648 285.423 442.934 286.28C439.477 288.008 435.003 290.7 431.14 291.559C426.081 292.683 421.486 301.448 425.562 305.524C426.61 306.572 426.514 312.388 425.936 313.76C424.716 316.658 423.368 318.409 422.679 321.51C421.943 324.824 419.858 323.195 416.988 323.195C413.688 323.195 410.363 323.063 407.067 323.195C400.855 323.443 396.65 325.977 395.049 331.581C394.852 332.27 388.94 335.081 388.01 335.288C385.292 335.892 382.496 337.621 380.111 335.475C372.128 328.291 363.706 320.493 356.3 313.086C355.53 312.317 355.707 310.572 354.802 309.567C353.782 308.434 353.457 307.701 352.78 306.347C352.21 305.207 351.173 304.02 350.459 303.127C349.851 302.368 349.821 300.816 348.887 300.282C345.006 298.065 344.636 290.101 339.826 289.5C338.883 289.382 339.493 288.792 339.003 288.302C338.569 287.868 337.714 288.436 337.28 288.002C336.458 287.18 335.609 286.902 334.585 285.98C333.243 284.773 330.481 283.209 328.632 282.798C325.695 282.145 323.079 280.639 320.283 279.241C318.969 278.584 316.849 278.718 315.716 277.893C315.201 277.519 313.054 276.161 312.496 276.059C310.127 275.628 306.016 273.286 304.371 271.641C301.571 268.841 295.688 269.127 292.503 266.961C289.212 264.723 285.405 263.596 281.594 262.467L281.346 262.394C277.846 261.357 274.673 259.247 271.725 257.527C270.411 256.76 267.934 257.66 267.045 256.104C266.009 254.292 264.904 254.848 263.301 254.12C259.818 252.536 256.357 251.231 252.893 249.589C245.592 246.131 236.275 244.736 228.295 242.963C222.843 241.751 216.397 242.569 211.111 240.454C207.797 239.129 203.385 240.926 199.954 239.481C197.136 238.295 193.031 238.212 189.92 237.646C188.23 237.339 186.247 237.609 184.529 237.609C183.188 237.609 181.789 236.597 180.448 236.299C178.317 235.825 174.238 235.91 172.548 234.389C170.525 232.569 167.1 232.938 164.611 231.694C163.076 230.926 158.021 230.887 157.198 229.859C155.033 227.152 146.357 227.5 143.046 227.5C140.791 227.5 135.736 226.273 133.612 225.329C131.027 224.18 127.367 224.805 124.551 224.805C121.168 224.805 118.298 222.783 114.742 222.783C111.677 222.783 108.942 222.109 105.981 222.109C103 222.109 100.683 221.59 97.8946 221.435C95.7925 221.318 91.9834 220.772 90.1447 219.75C88.5736 218.878 84.804 218.399 83.0313 218.103C80.4469 217.672 77.5531 216.718 74.9818 216.718C69.447 216.718 65.8987 214.022 60.4929 214.022H43.3083C40.9918 214.022 36.6974 213.217 34.5476 214.172C32.658 215.012 29.4941 215.37 27.4716 215.37C24.0705 215.37 21.7599 216.194 18.6734 216.755C15.7649 217.284 13.2806 219.413 10.287 219.413C7.57424 219.413 4.85499 219.57 2.20017 219.413C0.967944 219.341 -0.0350831 217.231 1.00211 216.194C1.59688 215.599 3.74616 214.938 4.59627 214.397C5.4458 213.856 6.34673 214.187 7.25445 213.985C8.03473 213.811 8.01018 212.892 8.6397 212.712C9.62004 212.432 10.4126 211.628 11.3353 211.364C12.9082 210.915 13.4104 208.904 14.7048 208.668C15.996 208.434 17.5553 207.73 18.7483 207.133C20.5124 206.251 23.8883 203.345 25.7868 203.24C28.5179 203.088 29.1247 199.896 30.8411 198.522C32.2027 197.433 32.3297 197.05 33.1998 195.527C33.2641 195.415 36.1955 192.52 36.3072 192.495C38.3369 192.044 41.7963 188.878 43.4581 187.216C47.3545 183.319 55.4222 181.58 56.8239 175.273C57.501 172.225 59.482 171.356 59.482 167.86C59.482 166.308 60.3379 161.733 58.1342 161.458C55.523 161.131 54.9497 157.306 55.9628 155.393C56.8375 153.74 56.7274 152.879 57.9845 151.873C58.6739 151.322 58.6555 149.515 59.1825 149.365C60.2909 149.048 61.537 148.981 62.5521 148.691C63.6868 148.367 64.1265 146.99 65.2477 146.669C67.3947 146.056 69.0645 144.912 70.4143 143.412C73.5226 139.958 75.4968 137.136 79.0627 134.165C79.6842 133.647 84.4603 130.458 84.7535 130.458C85.9914 130.458 89.2222 127.905 90.4817 127.238C91.9151 126.479 91.088 125.864 93.1773 125.741C94.1665 125.683 95.312 125.139 96.5468 125.067C96.975 125.042 101.717 122.984 101.938 122.708C103.23 121.093 106.764 120.888 108.003 119.339C109.519 117.444 112.329 117.576 113.544 115.632C114.11 114.727 119.685 111.667 120.658 111.589C121.291 111.538 123.432 109.953 124.027 109.417C124.842 108.684 126.245 109.341 126.872 108.556C127.806 107.389 129.192 108.019 129.606 106.572C129.712 106.198 131.198 105.16 131.59 104.475C132.775 102.401 132.678 99.9639 133.911 97.9609C135.409 95.5269 134.561 93.0384 136.644 91.3716C137.712 90.5174 137.539 88.3302 138.666 87.3282Z" fill="#0000BE"/>
</g>
</svg>
