<svg width="24" height="23" viewBox="0 0 24 23" fill="none" xmlns="http://www.w3.org/2000/svg">
<path d="M10.7436 0.155722C9.01139 0.369703 7.11612 1.0626 5.80165 1.95928C4.93553 2.55028 3.72297 3.71189 3.06064 4.5882C1.54239 6.60574 0.869873 8.68442 0.869873 11.3643C0.869873 14.6453 1.85827 17.0501 4.12036 19.3224C5.659 20.8508 7.10593 21.7067 9.10309 22.2468C10.01 22.4913 10.2545 22.5117 12.1294 22.5117C14.0247 22.5117 14.2387 22.4913 15.1863 22.2366C16.3989 21.9105 17.9884 21.1463 18.9157 20.4432C19.7614 19.8013 20.9842 18.5174 21.5548 17.6818C23.8169 14.3498 24.0818 9.77471 22.207 6.16759C21.137 4.0991 19.3131 2.30573 17.214 1.24601C16.3887 0.828236 15.1659 0.42065 14.2692 0.257618C13.4133 0.104773 11.5384 0.0538254 10.7436 0.155722ZM12.9242 6.37138C14.2692 6.56498 15.6754 7.48205 16.3173 8.57234C16.9695 9.683 17.2038 11.1911 16.9287 12.4851C16.7046 13.5245 16.3377 14.2276 15.655 14.9307C14.7074 15.8987 13.5865 16.3572 12.1192 16.3572C9.60238 16.3572 7.66636 14.6657 7.28934 12.1591C7.16706 11.293 7.25877 10.2332 7.54408 9.42826C8.02299 8.07305 9.25594 6.92162 10.6519 6.53442C11.6199 6.26949 12.0071 6.23892 12.9242 6.37138Z" fill="#0000BE"/>
</svg>
