<svg width="32" height="32" viewBox="0 0 32 32" fill="none" xmlns="http://www.w3.org/2000/svg">
<path fill-rule="evenodd" clip-rule="evenodd" d="M21.1105 1.25C20.4202 1.25 19.8605 1.80964 19.8605 2.5C19.8605 3.19036 20.4202 3.75 21.1105 3.75H25.5928L18.9767 10.3661C18.4885 10.8543 18.4885 11.6457 18.9767 12.1339C19.4648 12.622 20.2563 12.622 20.7444 12.1339L27.3605 5.51777V10C27.3605 10.6904 27.9202 11.25 28.6105 11.25C29.3009 11.25 29.8605 10.6904 29.8605 10V2.5C29.8605 1.80964 29.3009 1.25 28.6105 1.25H21.1105ZM8.90006 4.99991C9.51001 4.9939 10.0618 5.46717 10.1494 6.07052C10.3206 7.3606 10.6355 8.62899 11.0919 9.8501L11.0927 9.85229C11.2479 10.2651 11.1818 10.6016 10.8531 11.0682C10.573 11.4657 10.2235 11.798 9.80324 12.1975C9.6246 12.3673 9.43318 12.5493 9.22888 12.7536C8.83099 13.1515 8.748 13.7662 9.02614 14.2553C10.9168 17.5804 13.6699 20.3334 16.9949 22.2241C17.484 22.5022 18.0988 22.4192 18.4966 22.0213L20.0812 20.4368C20.4141 20.1093 20.9608 19.9932 21.3979 20.1575L21.4001 20.1584C22.6206 20.6145 23.8895 20.931 25.1814 21.101C25.791 21.1901 26.2659 21.7527 26.2506 22.369C26.2504 22.3793 26.2503 22.3896 26.2503 22.4C26.2503 22.8099 26.2777 23.2426 26.3047 23.6459L26.3121 23.7567L26.3122 23.7571C26.3374 24.1331 26.3615 24.4902 26.3711 24.8439C26.3927 25.6432 26.3305 26.2396 26.1461 26.662C25.9386 27.1373 25.4163 27.4494 24.8979 27.4059C14.0344 26.2193 5.05942 17.2717 3.89449 6.35438C3.83636 5.65486 4.44122 5.00094 5.13843 4.99997L8.88776 5.00003L8.90006 4.99991ZM12.6255 5.72503C12.3646 3.87929 10.7456 2.48504 8.88224 2.49997H5.13658C2.97901 2.502 1.20865 4.41102 1.40533 6.58747L1.40725 6.60697C2.69219 18.7069 12.602 28.5845 24.6402 29.8926L24.6614 29.8948C26.2582 30.0409 27.7986 29.125 28.4373 27.6623C28.8519 26.7126 28.8939 25.6525 28.8701 24.7761C28.8591 24.3693 28.8316 23.9619 28.8068 23.5937L28.8068 23.5936L28.7991 23.479C28.772 23.0738 28.7509 22.7246 28.7503 22.4133C28.7879 20.5335 27.3883 18.8875 25.5249 18.6247L25.5129 18.6231C24.4074 18.478 23.3213 18.2074 22.2766 17.817C20.9252 17.3095 19.3478 17.6461 18.3213 18.6611L18.3164 18.6661L17.42 19.5624C15.12 18.0963 13.1674 16.1458 11.6988 13.8475C12.1052 13.4539 12.5582 12.9887 12.8968 12.508C13.5309 11.6079 13.9696 10.4026 13.4335 8.97436C13.0433 7.9302 12.7735 6.84349 12.627 5.73602L12.6255 5.72503ZM13.4335 8.97436C13.4333 8.97379 13.433 8.97321 13.4328 8.97264L13.4337 8.97483C13.4336 8.97468 13.4335 8.97452 13.4335 8.97436Z" fill="#EB008C"/>
</svg>
