<svg width="30" height="29" viewBox="0 0 30 29" fill="none" xmlns="http://www.w3.org/2000/svg">
<path fill-rule="evenodd" clip-rule="evenodd" d="M15.0001 0.333313C15.5076 0.333313 15.9711 0.621409 16.1957 1.07648L20.0058 8.79527L28.5263 10.0407C29.0283 10.1141 29.4452 10.4661 29.6017 10.9487C29.7582 11.4314 29.6272 11.9611 29.2637 12.3151L23.0994 18.3191L24.5542 26.8013C24.64 27.3015 24.4344 27.8071 24.0237 28.1054C23.6131 28.4037 23.0687 28.443 22.6195 28.2067L15.0001 24.1998L7.38068 28.2067C6.93146 28.443 6.38707 28.4037 5.97643 28.1054C5.5658 27.8071 5.36014 27.3015 5.44594 26.8013L6.90072 18.3191L0.736436 12.3151C0.372945 11.9611 0.241915 11.4314 0.398418 10.9487C0.554922 10.4661 0.971828 10.1141 1.47391 10.0407L9.9944 8.79527L13.8045 1.07648C14.0291 0.621409 14.4926 0.333313 15.0001 0.333313ZM15.0001 4.67899L12.0757 10.6035C11.8816 10.9966 11.5067 11.2692 11.0729 11.3326L4.53129 12.2888L9.26372 16.8982C9.57822 17.2045 9.72177 17.646 9.64756 18.0787L8.53099 24.5889L14.3795 21.5132C14.768 21.3089 15.2322 21.3089 15.6207 21.5132L21.4692 24.5889L20.3526 18.0787C20.2784 17.646 20.4219 17.2045 20.7364 16.8982L25.4689 12.2888L18.9272 11.3326C18.4934 11.2692 18.1185 10.9966 17.9245 10.6035L15.0001 4.67899Z" fill="#EB008C"/>
</svg>
