<svg width="32" height="23" viewBox="0 0 32 23" fill="none" xmlns="http://www.w3.org/2000/svg">
<path fill-rule="evenodd" clip-rule="evenodd" d="M16 3.00352C11.1304 3.00352 6.42804 4.78016 2.77501 8.00021C2.22261 8.48714 1.38006 8.43406 0.893126 7.88165C0.406195 7.32925 0.459274 6.4867 1.01168 5.99977C5.15178 2.35038 10.4811 0.336853 16 0.336853C21.5189 0.336853 26.8482 2.35038 30.9883 5.99977C31.5408 6.4867 31.5938 7.32925 31.1069 7.88165C30.62 8.43406 29.7774 8.48714 29.225 8.00021C25.572 4.78016 20.8696 3.00352 16 3.00352ZM16.0533 9.66948C12.9353 9.66948 9.91585 10.7623 7.52001 12.7578C6.9542 13.2291 6.11346 13.1525 5.64218 12.5867C5.1709 12.0208 5.24753 11.1801 5.81335 10.7088C8.68835 8.31415 12.3117 7.00282 16.0533 7.00282C19.795 7.00282 23.4183 8.31415 26.2933 10.7088C26.8592 11.1801 26.9358 12.0208 26.4645 12.5867C25.9932 13.1525 25.1525 13.2291 24.5867 12.7578C22.1908 10.7623 19.1714 9.66948 16.0533 9.66948ZM16.0067 16.335C14.623 16.335 13.2736 16.7655 12.1456 17.5669C11.5453 17.9934 10.7129 17.8525 10.2864 17.2522C9.85991 16.6519 10.0008 15.8195 10.6011 15.393C12.1803 14.2711 14.0695 13.6683 16.0067 13.6683C17.9439 13.6683 19.833 14.2711 21.4122 15.393C22.0125 15.8195 22.1534 16.6519 21.727 17.2522C21.3005 17.8525 20.4681 17.9934 19.8678 17.5669C18.7398 16.7655 17.3904 16.335 16.0067 16.335ZM14.6667 21.6667C14.6667 20.9303 15.2636 20.3333 16 20.3333H16.0133C16.7497 20.3333 17.3467 20.9303 17.3467 21.6667C17.3467 22.403 16.7497 23 16.0133 23H16C15.2636 23 14.6667 22.403 14.6667 21.6667Z" fill="#EB008C"/>
</svg>
